<?xml version="1.0" standalone="no"?>
<!DOCTYPE svg PUBLIC "-//W3C//DTD SVG 20010904//EN"
 "http://www.w3.org/TR/2001/REC-SVG-20010904/DTD/svg10.dtd">
<svg version="1.0" xmlns="http://www.w3.org/2000/svg"
 width="512.000000pt" height="512.000000pt" viewBox="0 0 512.000000 512.000000"
 preserveAspectRatio="xMidYMid meet">

<g transform="translate(0.000000,512.000000) scale(0.100000,-0.100000)"
fill="#000000" stroke="none">
<path d="M2175 4946 c-67 -29 -105 -106 -91 -181 9 -47 59 -102 104 -115 24
-7 160 -10 394 -8 342 3 358 4 384 24 53 39 69 71 69 134 0 63 -16 95 -69 134
-26 20 -41 21 -394 23 -290 2 -373 0 -397 -11z"/>
<path d="M2410 4474 c-292 -35 -551 -130 -765 -282 -343 -243 -567 -586 -657
-1007 -20 -95 -21 -132 -25 -775 l-4 -674 -161 -375 c-145 -340 -160 -379
-155 -419 5 -48 27 -84 71 -116 27 -20 40 -21 545 -24 l517 -3 13 -52 c19 -76
83 -202 141 -279 96 -126 263 -237 430 -284 89 -25 308 -26 400 0 274 74 505
302 571 563 l13 52 517 3 c505 3 518 4 545 24 52 39 69 71 69 132 0 55 -5 66
-157 330 l-157 272 -4 763 c-4 734 -4 766 -25 861 -61 282 -172 513 -350 727
-227 273 -556 467 -917 539 -97 20 -372 34 -455 24z m420 -343 c252 -57 446
-165 631 -350 151 -151 239 -290 307 -483 67 -188 66 -173 72 -1043 l5 -790
98 -168 c53 -93 97 -171 97 -173 0 -2 -675 -4 -1499 -4 l-1499 0 116 268 117
267 6 705 c6 765 5 739 66 925 152 466 571 805 1073 869 79 10 327 -4 410 -23z
m166 -3366 c-80 -189 -299 -310 -507 -278 -157 25 -306 139 -365 278 l-14 35
450 0 450 0 -14 -35z"/>
</g>
</svg>
