<?xml version="1.0" standalone="no"?>
<!DOCTYPE svg PUBLIC "-//W3C//DTD SVG 20010904//EN"
 "http://www.w3.org/TR/2001/REC-SVG-20010904/DTD/svg10.dtd">
<svg version="1.0" xmlns="http://www.w3.org/2000/svg"
 width="512.000000pt" height="512.000000pt" viewBox="0 0 512.000000 512.000000"
 preserveAspectRatio="xMidYMid meet">

<g transform="translate(0.000000,512.000000) scale(0.100000,-0.100000)"
fill="#000000" stroke="none">
<path d="M295 3946 c-66 -29 -105 -106 -91 -179 9 -47 60 -104 104 -117 26 -8
710 -10 2274 -8 l2237 3 27 21 c44 32 66 68 71 116 7 58 -15 108 -63 144 l-37
29 -2246 2 c-1852 2 -2251 0 -2276 -11z"/>
<path d="M295 2666 c-66 -29 -105 -106 -91 -179 9 -47 60 -104 104 -117 26 -8
393 -10 1194 -8 1150 3 1157 3 1184 24 44 32 66 68 71 116 7 58 -15 108 -63
144 l-37 29 -1166 2 c-954 2 -1172 0 -1196 -11z"/>
<path d="M295 1386 c-66 -29 -105 -106 -91 -179 9 -47 60 -104 104 -117 26 -8
710 -10 2274 -8 l2237 3 27 21 c44 32 66 68 71 116 7 58 -15 108 -63 144 l-37
29 -2246 2 c-1852 2 -2251 0 -2276 -11z"/>
</g>
</svg>
