<svg id="svg" version="1.1" xmlns="http://www.w3.org/2000/svg" xmlns:xlink="http://www.w3.org/1999/xlink" width="400" height="400" viewBox="0, 0, 400,400"><g id="svgg"><path id="path0" d="M196.000 203.200 C 196.000 203.431,194.741 203.600,193.024 203.600 C 191.387 203.600,189.936 203.780,189.800 204.000 C 189.664 204.220,188.944 204.400,188.200 204.400 C 187.456 204.400,186.736 204.580,186.600 204.800 C 186.464 205.020,185.823 205.200,185.176 205.200 C 184.529 205.200,184.000 205.380,184.000 205.600 C 184.000 205.820,183.561 206.000,183.024 206.000 C 182.487 206.000,181.936 206.180,181.800 206.400 C 181.664 206.620,181.203 206.800,180.776 206.800 C 180.349 206.800,180.000 206.980,180.000 207.200 C 180.000 207.420,179.640 207.600,179.200 207.600 C 178.760 207.600,178.400 207.780,178.400 208.000 C 178.400 208.220,178.130 208.400,177.800 208.400 C 177.470 208.400,177.200 208.580,177.200 208.800 C 177.200 209.020,176.840 209.200,176.400 209.200 C 175.960 209.200,175.600 209.380,175.600 209.600 C 175.600 209.820,175.268 210.000,174.861 210.000 C 174.455 210.000,173.707 210.360,173.200 210.800 C 172.693 211.240,172.131 211.600,171.952 211.600 C 171.773 211.600,170.997 212.230,170.227 213.000 C 169.457 213.770,168.679 214.400,168.498 214.400 C 168.090 214.400,164.400 218.116,164.400 218.527 C 164.400 218.692,163.770 219.457,163.000 220.227 C 162.230 220.997,161.600 221.773,161.600 221.952 C 161.600 222.131,161.240 222.693,160.800 223.200 C 160.360 223.707,160.000 224.455,160.000 224.861 C 160.000 225.268,159.820 225.600,159.600 225.600 C 159.380 225.600,159.200 225.960,159.200 226.400 C 159.200 226.840,159.020 227.200,158.800 227.200 C 158.580 227.200,158.400 227.470,158.400 227.800 C 158.400 228.130,158.220 228.400,158.000 228.400 C 157.780 228.400,157.600 228.760,157.600 229.200 C 157.600 229.640,157.420 230.000,157.200 230.000 C 156.980 230.000,156.800 230.360,156.800 230.800 C 156.800 231.240,156.620 231.600,156.400 231.600 C 156.180 231.600,156.000 232.140,156.000 232.800 C 156.000 233.460,155.820 234.000,155.600 234.000 C 155.380 234.000,155.200 234.540,155.200 235.200 C 155.200 235.860,155.020 236.400,154.800 236.400 C 154.580 236.400,154.400 236.940,154.400 237.600 C 154.400 238.260,154.220 238.800,154.000 238.800 C 153.780 238.800,153.600 239.700,153.600 240.800 C 153.600 241.900,153.420 242.800,153.200 242.800 C 152.947 242.800,152.800 245.733,152.800 250.800 C 152.800 255.867,152.947 258.800,153.200 258.800 C 153.420 258.800,153.600 259.700,153.600 260.800 C 153.600 261.900,153.780 262.800,154.000 262.800 C 154.220 262.800,154.400 263.520,154.400 264.400 C 154.400 265.280,154.580 266.000,154.800 266.000 C 155.020 266.000,155.200 266.540,155.200 267.200 C 155.200 267.860,155.380 268.400,155.600 268.400 C 155.820 268.400,156.000 268.760,156.000 269.200 C 156.000 269.640,156.180 270.000,156.400 270.000 C 156.620 270.000,156.800 270.360,156.800 270.800 C 156.800 271.240,156.980 271.600,157.200 271.600 C 157.420 271.600,157.600 272.050,157.600 272.600 C 157.600 273.150,157.780 273.600,158.000 273.600 C 158.220 273.600,158.400 273.870,158.400 274.200 C 158.400 274.530,158.580 274.800,158.800 274.800 C 159.020 274.800,159.200 275.070,159.200 275.400 C 159.200 275.730,159.380 276.000,159.600 276.000 C 159.820 276.000,160.000 276.352,160.000 276.782 C 160.000 277.212,160.450 278.014,161.000 278.564 C 161.550 279.114,162.000 279.745,162.000 279.966 C 162.000 280.492,169.508 288.000,170.034 288.000 C 170.255 288.000,170.886 288.450,171.436 289.000 C 171.986 289.550,172.581 290.000,172.757 290.000 C 172.933 290.000,173.493 290.360,174.000 290.800 C 174.507 291.240,175.255 291.600,175.661 291.600 C 176.068 291.600,176.400 291.746,176.400 291.925 C 176.400 292.104,177.030 292.498,177.800 292.800 C 178.570 293.102,179.200 293.496,179.200 293.675 C 179.200 293.854,179.650 294.000,180.200 294.000 C 180.750 294.000,181.200 294.180,181.200 294.400 C 181.200 294.620,181.650 294.800,182.200 294.800 L 183.200 294.800 183.200 306.376 C 183.200 313.663,183.348 318.044,183.600 318.200 C 183.820 318.336,184.000 319.416,184.000 320.600 C 184.000 321.784,184.180 322.864,184.400 323.000 C 184.620 323.136,184.800 323.687,184.800 324.224 C 184.800 324.761,184.980 325.200,185.200 325.200 C 185.420 325.200,185.600 325.494,185.600 325.853 C 185.600 326.212,185.916 326.797,186.303 327.153 C 186.689 327.509,187.249 328.275,187.547 328.856 C 187.844 329.437,188.563 330.156,189.144 330.453 C 189.725 330.751,190.491 331.311,190.847 331.697 C 191.203 332.084,191.788 332.400,192.147 332.400 C 192.506 332.400,192.800 332.580,192.800 332.800 C 192.800 333.020,193.340 333.200,194.000 333.200 C 194.660 333.200,195.200 333.380,195.200 333.600 C 195.200 333.844,197.059 334.000,199.976 334.000 C 202.729 334.000,204.858 333.831,205.000 333.600 C 205.136 333.380,205.687 333.200,206.224 333.200 C 206.761 333.200,207.200 333.020,207.200 332.800 C 207.200 332.580,207.494 332.400,207.853 332.400 C 208.212 332.400,208.797 332.084,209.153 331.697 C 209.509 331.311,210.275 330.751,210.856 330.453 C 211.437 330.156,212.156 329.437,212.453 328.856 C 212.751 328.275,213.311 327.509,213.697 327.153 C 214.084 326.797,214.400 326.212,214.400 325.853 C 214.400 325.494,214.580 325.200,214.800 325.200 C 215.020 325.200,215.200 324.761,215.200 324.224 C 215.200 323.687,215.380 323.136,215.600 323.000 C 215.820 322.864,216.000 321.784,216.000 320.600 C 216.000 319.416,216.180 318.336,216.400 318.200 C 216.652 318.044,216.800 313.663,216.800 306.376 L 216.800 294.800 217.776 294.800 C 218.313 294.800,218.864 294.620,219.000 294.400 C 219.136 294.180,219.597 294.000,220.024 294.000 C 220.451 294.000,220.800 293.820,220.800 293.600 C 220.800 293.380,221.160 293.200,221.600 293.200 C 222.040 293.200,222.402 293.065,222.405 292.900 C 222.407 292.735,223.172 292.241,224.105 291.803 C 225.037 291.364,226.038 290.779,226.329 290.503 C 226.619 290.226,227.005 290.000,227.186 290.000 C 227.367 290.000,228.093 289.460,228.800 288.800 C 229.507 288.140,230.247 287.600,230.445 287.600 C 230.923 287.600,237.200 281.253,237.200 280.769 C 237.200 280.562,237.740 279.828,238.400 279.137 C 239.060 278.446,239.600 277.638,239.600 277.341 C 239.600 277.043,239.735 276.799,239.900 276.797 C 240.302 276.794,241.600 274.481,241.600 273.768 C 241.600 273.455,241.780 273.200,242.000 273.200 C 242.220 273.200,242.400 272.840,242.400 272.400 C 242.400 271.960,242.580 271.600,242.800 271.600 C 243.020 271.600,243.200 271.240,243.200 270.800 C 243.200 270.360,243.380 270.000,243.600 270.000 C 243.820 270.000,244.000 269.651,244.000 269.224 C 244.000 268.797,244.180 268.336,244.400 268.200 C 244.620 268.064,244.800 267.513,244.800 266.976 C 244.800 266.439,244.960 266.000,245.156 266.000 C 245.506 266.000,245.820 264.663,246.259 261.300 C 246.381 260.365,246.642 259.600,246.840 259.600 C 247.038 259.600,247.200 257.890,247.200 255.800 C 247.200 253.533,247.361 252.000,247.600 252.000 C 247.820 252.000,248.000 251.190,248.000 250.200 C 248.000 249.210,247.820 248.400,247.600 248.400 C 247.365 248.400,247.200 247.008,247.200 245.024 C 247.200 243.167,247.020 241.536,246.800 241.400 C 246.580 241.264,246.400 240.443,246.400 239.576 C 246.400 238.709,246.220 238.000,246.000 238.000 C 245.780 238.000,245.600 237.460,245.600 236.800 C 245.600 236.140,245.420 235.600,245.200 235.600 C 244.980 235.600,244.800 235.060,244.800 234.400 C 244.800 233.740,244.620 233.200,244.400 233.200 C 244.180 233.200,244.000 232.750,244.000 232.200 C 244.000 231.650,243.820 231.200,243.600 231.200 C 243.380 231.200,243.200 230.966,243.200 230.680 C 243.200 229.977,242.266 228.007,241.932 228.003 C 241.784 228.001,241.545 227.460,241.400 226.800 C 241.255 226.140,240.971 225.600,240.768 225.600 C 240.566 225.600,240.400 225.375,240.400 225.100 C 240.399 224.825,239.949 224.077,239.400 223.438 C 238.850 222.799,238.400 222.125,238.400 221.942 C 238.400 221.479,229.279 212.400,228.814 212.400 C 228.606 212.400,228.015 211.979,227.500 211.464 C 226.986 210.949,226.077 210.406,225.482 210.256 C 224.887 210.107,224.400 209.808,224.400 209.592 C 224.400 209.377,224.130 209.200,223.800 209.200 C 223.470 209.200,223.200 209.020,223.200 208.800 C 223.200 208.580,222.840 208.400,222.400 208.400 C 221.960 208.400,221.600 208.220,221.600 208.000 C 221.600 207.780,221.240 207.600,220.800 207.600 C 220.360 207.600,220.000 207.420,220.000 207.200 C 220.000 206.980,219.651 206.800,219.224 206.800 C 218.797 206.800,218.336 206.620,218.200 206.400 C 218.064 206.180,217.513 206.000,216.976 206.000 C 216.439 206.000,216.000 205.820,216.000 205.600 C 216.000 205.380,215.460 205.200,214.800 205.200 C 214.140 205.200,213.600 205.020,213.600 204.800 C 213.600 204.580,212.880 204.400,212.000 204.400 C 211.120 204.400,210.400 204.220,210.400 204.000 C 210.400 203.775,209.275 203.600,207.824 203.600 C 206.407 203.600,205.136 203.420,205.000 203.200 C 204.860 202.973,202.863 202.800,200.376 202.800 C 197.725 202.800,196.000 202.958,196.000 203.200 M203.500 236.259 C 204.435 236.381,205.200 236.642,205.200 236.840 C 205.200 237.038,205.560 237.200,206.000 237.200 C 206.440 237.200,206.800 237.380,206.800 237.600 C 206.800 237.820,207.084 238.000,207.432 238.000 C 207.780 238.000,209.130 239.066,210.432 240.368 C 211.734 241.670,212.800 243.020,212.800 243.368 C 212.800 243.716,212.980 244.000,213.200 244.000 C 213.420 244.000,213.600 244.439,213.600 244.976 C 213.600 245.513,213.780 246.064,214.000 246.200 C 214.220 246.336,214.400 247.337,214.400 248.424 C 214.400 249.694,214.571 250.400,214.880 250.400 C 215.253 250.400,215.253 250.507,214.880 250.880 C 214.616 251.144,214.400 252.224,214.400 253.280 C 214.400 254.336,214.220 255.200,214.000 255.200 C 213.780 255.200,213.600 255.472,213.600 255.805 C 213.600 256.412,212.949 257.740,212.200 258.661 C 211.980 258.931,211.350 259.785,210.800 260.559 C 210.250 261.332,209.305 262.175,208.700 262.431 C 208.095 262.687,207.600 263.055,207.600 263.249 C 207.600 263.442,207.240 263.600,206.800 263.600 C 206.360 263.600,206.000 263.780,206.000 264.000 C 206.000 264.220,205.561 264.400,205.024 264.400 C 204.487 264.400,203.936 264.580,203.800 264.800 C 203.664 265.020,201.954 265.200,200.000 265.200 C 198.046 265.200,196.336 265.020,196.200 264.800 C 196.064 264.580,195.513 264.400,194.976 264.400 C 194.439 264.400,194.000 264.220,194.000 264.000 C 194.000 263.780,193.732 263.600,193.405 263.600 C 192.067 263.600,187.200 258.749,187.200 257.417 C 187.200 257.078,187.020 256.800,186.800 256.800 C 186.580 256.800,186.400 256.440,186.400 256.000 C 186.400 255.560,186.220 255.200,186.000 255.200 C 185.780 255.200,185.600 254.336,185.600 253.280 C 185.600 252.224,185.384 251.144,185.120 250.880 C 184.747 250.507,184.747 250.400,185.120 250.400 C 185.429 250.400,185.600 249.694,185.600 248.424 C 185.600 247.337,185.780 246.336,186.000 246.200 C 186.220 246.064,186.400 245.513,186.400 244.976 C 186.400 244.439,186.580 244.000,186.800 244.000 C 187.020 244.000,187.200 243.711,187.200 243.358 C 187.200 242.560,191.804 238.000,192.610 238.000 C 192.935 238.000,193.200 237.820,193.200 237.600 C 193.200 237.380,193.560 237.200,194.000 237.200 C 194.440 237.200,194.800 237.020,194.800 236.800 C 194.800 236.580,195.475 236.397,196.300 236.394 C 197.125 236.391,198.070 236.205,198.400 235.982 C 198.730 235.758,199.630 235.679,200.400 235.806 C 201.170 235.933,202.565 236.137,203.500 236.259 " stroke="none" fill="#fc5cf4" fill-rule="evenodd"></path><path id="path1" d="M116.800 164.844 C 112.128 165.775,109.111 166.556,105.800 167.693 C 101.933 169.021,94.694 172.530,93.425 173.691 C 92.998 174.081,92.505 174.400,92.329 174.400 C 92.153 174.400,91.692 174.660,91.305 174.978 C 90.917 175.295,89.520 176.357,88.200 177.337 C 85.247 179.530,78.245 186.691,76.405 189.400 C 75.658 190.500,74.901 191.460,74.723 191.533 C 74.545 191.607,74.400 191.844,74.400 192.061 C 74.400 192.278,73.892 193.208,73.272 194.128 C 70.261 198.592,66.859 207.384,65.352 214.600 C 64.223 220.004,64.185 312.210,65.309 317.600 C 66.982 325.618,71.525 336.894,74.300 339.913 C 74.575 340.212,74.800 340.611,74.800 340.800 C 74.800 340.989,75.031 341.381,75.313 341.671 C 75.595 341.962,76.264 342.830,76.800 343.600 C 77.335 344.370,78.499 345.779,79.387 346.731 C 80.274 347.683,81.060 348.627,81.133 348.829 C 82.349 352.197,97.943 362.175,106.600 365.126 C 112.973 367.298,127.200 369.364,127.200 368.118 C 127.200 367.566,125.766 365.967,125.505 366.228 C 125.387 366.346,124.930 365.983,124.488 365.421 C 124.046 364.859,123.616 364.400,123.531 364.400 C 123.135 364.400,114.400 355.577,114.400 355.177 C 114.400 354.926,113.860 354.217,113.200 353.600 C 112.540 352.983,112.000 352.308,112.000 352.099 C 112.000 351.890,111.503 351.197,110.896 350.559 C 110.289 349.922,109.264 348.354,108.618 347.076 C 107.973 345.797,107.314 344.671,107.155 344.572 C 106.996 344.474,106.121 342.820,105.212 340.897 C 104.303 338.973,103.209 336.708,102.780 335.862 C 102.351 335.016,102.000 333.992,102.000 333.586 C 102.000 333.180,101.820 332.736,101.600 332.600 C 101.380 332.464,101.200 331.913,101.200 331.376 C 101.200 330.839,101.020 330.400,100.800 330.400 C 100.580 330.400,100.400 329.860,100.400 329.200 C 100.400 328.540,100.220 328.000,100.000 328.000 C 99.780 328.000,99.600 327.460,99.600 326.800 C 99.600 326.140,99.420 325.600,99.200 325.600 C 98.980 325.600,98.800 324.891,98.800 324.024 C 98.800 323.157,98.620 322.336,98.400 322.200 C 98.180 322.064,98.000 320.963,98.000 319.753 C 98.000 318.388,97.848 317.647,97.600 317.800 C 97.344 317.958,97.200 316.671,97.200 314.224 C 97.200 311.941,97.039 310.400,96.800 310.400 C 96.536 310.400,96.400 295.400,96.400 266.200 C 96.400 237.000,96.536 222.000,96.800 222.000 C 97.037 222.000,97.200 220.541,97.200 218.424 C 97.200 216.457,97.380 214.736,97.600 214.600 C 97.820 214.464,98.000 213.463,98.000 212.376 C 98.000 211.289,98.180 210.400,98.400 210.400 C 98.620 210.400,98.800 209.680,98.800 208.800 C 98.800 207.920,98.980 207.200,99.200 207.200 C 99.420 207.200,99.600 206.469,99.600 205.576 C 99.600 204.596,99.758 204.051,100.000 204.200 C 100.233 204.344,100.400 203.937,100.400 203.224 C 100.400 202.551,100.580 202.000,100.800 202.000 C 101.020 202.000,101.200 201.460,101.200 200.800 C 101.200 200.140,101.347 199.600,101.528 199.600 C 101.708 199.600,102.100 198.700,102.400 197.600 C 102.700 196.500,103.092 195.600,103.272 195.600 C 103.453 195.600,103.600 195.240,103.600 194.800 C 103.600 194.360,103.780 194.000,104.000 194.000 C 104.220 194.000,104.400 193.713,104.400 193.362 C 104.400 193.011,104.723 192.246,105.118 191.662 C 105.513 191.078,106.277 189.700,106.815 188.600 C 107.354 187.500,108.021 186.362,108.298 186.071 C 108.574 185.781,108.800 185.331,108.801 185.071 C 108.801 184.812,109.341 183.970,110.000 183.200 C 110.659 182.430,111.199 181.615,111.199 181.388 C 111.200 181.162,111.560 180.717,112.000 180.400 C 112.440 180.083,112.800 179.611,112.800 179.352 C 112.800 179.093,113.700 177.962,114.800 176.839 C 115.900 175.715,116.800 174.688,116.800 174.557 C 116.800 174.425,118.361 172.851,120.269 171.059 C 122.177 169.266,124.334 167.215,125.062 166.500 C 125.790 165.785,126.558 165.200,126.769 165.200 C 126.980 165.200,127.264 165.020,127.400 164.800 C 127.710 164.299,119.365 164.333,116.800 164.844 " stroke="none" fill="#cbe3f3" fill-rule="evenodd"></path><path id="path2" d="M186.500 0.274 C 185.125 0.364,184.000 0.610,184.000 0.819 C 184.000 1.029,183.201 1.200,182.224 1.200 C 181.247 1.200,180.336 1.380,180.200 1.600 C 180.064 1.820,179.333 2.000,178.576 2.000 C 177.819 2.000,177.200 2.180,177.200 2.400 C 177.200 2.620,176.660 2.800,176.000 2.800 C 175.340 2.800,174.800 2.980,174.800 3.200 C 174.800 3.420,174.260 3.600,173.600 3.600 C 172.940 3.600,172.400 3.780,172.400 4.000 C 172.400 4.220,171.860 4.400,171.200 4.400 C 170.540 4.400,170.000 4.580,170.000 4.800 C 170.000 5.020,169.561 5.200,169.024 5.200 C 168.487 5.200,167.936 5.380,167.800 5.600 C 167.664 5.820,167.203 6.000,166.776 6.000 C 166.349 6.000,166.000 6.180,166.000 6.400 C 166.000 6.620,165.640 6.800,165.200 6.800 C 164.760 6.800,164.400 6.980,164.400 7.200 C 164.400 7.420,164.040 7.600,163.600 7.600 C 163.160 7.600,162.800 7.780,162.800 8.000 C 162.800 8.220,162.440 8.400,162.000 8.400 C 161.560 8.400,161.200 8.580,161.200 8.800 C 161.200 9.020,160.930 9.200,160.600 9.200 C 160.270 9.200,160.000 9.380,160.000 9.600 C 160.000 9.820,159.736 10.000,159.414 10.000 C 158.601 10.000,156.000 11.276,156.000 11.674 C 156.000 11.853,155.764 12.000,155.475 12.000 C 155.187 12.000,154.564 12.360,154.092 12.800 C 153.620 13.240,153.073 13.600,152.876 13.600 C 152.679 13.600,151.954 14.140,151.263 14.800 C 150.572 15.460,149.850 16.000,149.657 16.000 C 149.034 16.000,140.400 24.250,140.400 24.846 C 140.400 25.066,139.500 26.108,138.400 27.163 C 137.300 28.217,136.400 29.247,136.400 29.452 C 136.400 29.656,136.040 30.083,135.600 30.400 C 135.160 30.717,134.800 31.207,134.800 31.488 C 134.800 31.770,134.620 32.000,134.400 32.000 C 134.180 32.000,134.000 32.188,134.000 32.417 C 134.000 32.646,133.640 33.220,133.200 33.692 C 132.760 34.164,132.400 34.787,132.400 35.075 C 132.400 35.364,132.265 35.603,132.100 35.606 C 131.935 35.610,131.360 36.510,130.821 37.606 C 130.283 38.703,129.698 39.600,129.521 39.600 C 129.345 39.600,129.200 39.839,129.200 40.132 C 129.200 40.425,128.751 41.550,128.202 42.632 C 127.653 43.714,127.203 44.915,127.202 45.300 C 127.201 45.685,127.020 46.000,126.800 46.000 C 126.580 46.000,126.400 46.450,126.400 47.000 C 126.400 47.550,126.220 48.000,126.000 48.000 C 125.780 48.000,125.600 48.439,125.600 48.976 C 125.600 49.513,125.420 50.064,125.200 50.200 C 124.980 50.336,124.800 50.797,124.800 51.224 C 124.800 51.651,124.620 52.000,124.400 52.000 C 124.180 52.000,124.000 52.619,124.000 53.376 C 124.000 54.133,123.820 54.864,123.600 55.000 C 123.380 55.136,123.200 55.777,123.200 56.424 C 123.200 57.071,123.020 57.600,122.800 57.600 C 122.580 57.600,122.400 58.320,122.400 59.200 C 122.400 60.080,122.220 60.800,122.000 60.800 C 121.780 60.800,121.600 61.610,121.600 62.600 C 121.600 63.590,121.420 64.400,121.200 64.400 C 120.978 64.400,120.800 65.459,120.800 66.776 C 120.800 68.083,120.620 69.264,120.400 69.400 C 120.171 69.542,120.000 71.604,120.000 74.224 C 120.000 77.008,119.843 78.800,119.600 78.800 C 119.337 78.800,119.200 87.840,119.200 105.120 C 119.200 135.102,119.602 132.400,115.144 132.400 C 113.441 132.400,111.936 132.580,111.800 132.800 C 111.664 133.020,110.663 133.200,109.576 133.200 C 108.489 133.200,107.600 133.380,107.600 133.600 C 107.600 133.820,106.801 134.000,105.824 134.000 C 104.847 134.000,103.936 134.180,103.800 134.400 C 103.664 134.620,102.944 134.800,102.200 134.800 C 101.456 134.800,100.736 134.980,100.600 135.200 C 100.464 135.420,99.823 135.600,99.176 135.600 C 98.529 135.600,98.000 135.780,98.000 136.000 C 98.000 136.220,97.561 136.400,97.024 136.400 C 96.487 136.400,95.936 136.580,95.800 136.800 C 95.664 137.020,95.113 137.200,94.576 137.200 C 94.039 137.200,93.600 137.380,93.600 137.600 C 93.600 137.820,93.161 138.000,92.624 138.000 C 92.087 138.000,91.536 138.180,91.400 138.400 C 91.264 138.620,90.803 138.800,90.376 138.800 C 89.949 138.800,89.600 138.980,89.600 139.200 C 89.600 139.420,89.240 139.600,88.800 139.600 C 88.360 139.600,88.000 139.780,88.000 140.000 C 88.000 140.220,87.728 140.400,87.395 140.400 C 87.062 140.400,86.477 140.568,86.095 140.774 C 85.713 140.979,84.815 141.383,84.100 141.671 C 83.385 141.960,82.800 142.331,82.800 142.498 C 82.800 142.664,82.440 142.800,82.000 142.800 C 81.560 142.800,81.200 142.960,81.200 143.157 C 81.200 143.353,80.716 143.635,80.124 143.783 C 79.026 144.059,76.707 145.518,76.467 146.086 C 76.393 146.258,76.028 146.400,75.655 146.400 C 75.282 146.400,74.717 146.760,74.400 147.200 C 74.083 147.640,73.543 148.000,73.200 148.000 C 72.857 148.000,72.317 148.360,72.000 148.800 C 71.683 149.240,71.231 149.600,70.996 149.600 C 70.760 149.600,69.772 150.320,68.800 151.200 C 67.828 152.080,66.886 152.800,66.709 152.800 C 66.531 152.800,65.231 153.925,63.819 155.300 C 62.408 156.675,60.566 158.454,59.727 159.252 C 57.367 161.497,53.807 165.386,52.756 166.865 C 52.235 167.599,51.312 168.722,50.704 169.359 C 50.097 169.997,49.600 170.722,49.600 170.971 C 49.600 171.220,49.240 171.683,48.800 172.000 C 48.360 172.317,48.000 172.857,48.000 173.200 C 48.000 173.543,47.640 174.083,47.200 174.400 C 46.760 174.717,46.400 175.282,46.400 175.655 C 46.400 176.028,46.265 176.393,46.100 176.467 C 45.520 176.724,44.032 179.132,43.756 180.260 C 43.602 180.887,43.370 181.490,43.238 181.600 C 42.766 181.996,42.000 183.602,42.000 184.195 C 42.000 184.528,41.820 184.800,41.600 184.800 C 41.380 184.800,41.200 185.160,41.200 185.600 C 41.200 186.040,41.020 186.400,40.800 186.400 C 40.580 186.400,40.400 186.760,40.400 187.200 C 40.400 187.640,40.220 188.000,40.000 188.000 C 39.780 188.000,39.600 188.360,39.600 188.800 C 39.600 189.240,39.420 189.600,39.200 189.600 C 38.980 189.600,38.800 190.140,38.800 190.800 C 38.800 191.460,38.620 192.000,38.400 192.000 C 38.180 192.000,38.000 192.360,38.000 192.800 C 38.000 193.240,37.820 193.600,37.600 193.600 C 37.380 193.600,37.200 194.140,37.200 194.800 C 37.200 195.460,37.020 196.000,36.800 196.000 C 36.580 196.000,36.400 196.439,36.400 196.976 C 36.400 197.513,36.220 198.064,36.000 198.200 C 35.780 198.336,35.600 199.067,35.600 199.824 C 35.600 200.581,35.420 201.200,35.200 201.200 C 34.980 201.200,34.800 201.920,34.800 202.800 C 34.800 203.680,34.620 204.400,34.400 204.400 C 34.180 204.400,34.000 205.120,34.000 206.000 C 34.000 206.880,33.820 207.600,33.600 207.600 C 33.378 207.600,33.200 208.667,33.200 210.000 C 33.200 211.333,33.022 212.400,32.800 212.400 C 32.562 212.400,32.400 213.907,32.400 216.120 C 32.400 218.166,32.218 220.022,31.997 220.243 C 31.082 221.158,31.905 320.000,32.827 320.000 C 33.032 320.000,33.200 320.979,33.200 322.176 C 33.200 323.373,33.380 324.464,33.600 324.600 C 33.820 324.736,34.000 325.647,34.000 326.624 C 34.000 327.601,34.180 328.400,34.400 328.400 C 34.620 328.400,34.800 329.019,34.800 329.776 C 34.800 330.533,34.980 331.264,35.200 331.400 C 35.420 331.536,35.600 332.177,35.600 332.824 C 35.600 333.471,35.780 334.000,36.000 334.000 C 36.220 334.000,36.400 334.540,36.400 335.200 C 36.400 335.860,36.580 336.400,36.800 336.400 C 37.020 336.400,37.200 336.940,37.200 337.600 C 37.200 338.260,37.380 338.800,37.600 338.800 C 37.820 338.800,38.000 339.250,38.000 339.800 C 38.000 340.350,38.180 340.800,38.400 340.800 C 38.620 340.800,38.800 341.160,38.800 341.600 C 38.800 342.040,38.980 342.400,39.200 342.400 C 39.420 342.400,39.600 342.940,39.600 343.600 C 39.600 344.260,39.780 344.800,40.000 344.800 C 40.220 344.800,40.400 345.160,40.400 345.600 C 40.400 346.040,40.580 346.400,40.800 346.400 C 41.020 346.400,41.200 346.760,41.200 347.200 C 41.200 347.640,41.380 348.000,41.600 348.000 C 41.820 348.000,42.000 348.360,42.000 348.800 C 42.000 349.240,42.180 349.600,42.400 349.600 C 42.620 349.600,42.800 349.960,42.800 350.400 C 42.800 350.840,42.980 351.200,43.200 351.200 C 43.420 351.200,43.600 351.547,43.600 351.971 C 43.600 352.396,43.870 353.013,44.200 353.343 C 44.530 353.673,44.800 354.058,44.800 354.199 C 44.800 354.340,45.340 355.241,46.000 356.200 C 46.660 357.159,47.200 358.097,47.200 358.284 C 47.200 358.471,47.560 358.883,48.000 359.200 C 48.440 359.517,48.800 360.009,48.800 360.292 C 48.800 360.575,49.340 361.372,50.000 362.063 C 50.660 362.754,51.200 363.472,51.200 363.659 C 51.200 363.846,51.920 364.741,52.800 365.648 C 53.680 366.555,54.400 367.460,54.400 367.659 C 54.400 368.150,63.003 376.720,64.991 378.208 C 65.866 378.864,67.108 379.895,67.750 380.500 C 68.393 381.105,69.074 381.600,69.263 381.600 C 69.452 381.600,70.172 382.140,70.863 382.800 C 71.554 383.460,72.322 384.000,72.571 384.000 C 72.820 384.000,73.283 384.360,73.600 384.800 C 73.917 385.240,74.414 385.600,74.705 385.600 C 74.996 385.600,75.594 385.936,76.034 386.346 C 76.475 386.757,77.682 387.519,78.718 388.041 C 79.753 388.562,80.690 389.082,80.800 389.195 C 81.360 389.769,85.297 391.600,85.973 391.600 C 86.402 391.600,86.864 391.780,87.000 392.000 C 87.136 392.220,87.597 392.400,88.024 392.400 C 88.451 392.400,88.800 392.580,88.800 392.800 C 88.800 393.020,89.160 393.200,89.600 393.200 C 90.040 393.200,90.400 393.380,90.400 393.600 C 90.400 393.820,90.940 394.000,91.600 394.000 C 92.260 394.000,92.800 394.180,92.800 394.400 C 92.800 394.620,93.160 394.800,93.600 394.800 C 94.040 394.800,94.400 394.980,94.400 395.200 C 94.400 395.420,94.839 395.600,95.376 395.600 C 95.913 395.600,96.464 395.780,96.600 396.000 C 96.736 396.220,97.366 396.400,98.000 396.400 C 98.634 396.400,99.264 396.580,99.400 396.800 C 99.536 397.020,100.177 397.200,100.824 397.200 C 101.471 397.200,102.000 397.380,102.000 397.600 C 102.000 397.820,102.720 398.000,103.600 398.000 C 104.480 398.000,105.200 398.180,105.200 398.400 C 105.200 398.620,106.085 398.800,107.167 398.800 C 108.384 398.800,109.197 398.990,109.300 399.300 C 109.545 400.035,290.455 400.035,290.700 399.300 C 290.803 398.990,291.616 398.800,292.833 398.800 C 293.915 398.800,294.800 398.620,294.800 398.400 C 294.800 398.180,295.520 398.000,296.400 398.000 C 297.280 398.000,298.000 397.820,298.000 397.600 C 298.000 397.380,298.619 397.200,299.376 397.200 C 300.133 397.200,300.864 397.020,301.000 396.800 C 301.136 396.580,301.676 396.400,302.200 396.400 C 302.724 396.400,303.264 396.220,303.400 396.000 C 303.536 395.780,304.076 395.600,304.600 395.600 C 305.124 395.600,305.664 395.420,305.800 395.200 C 305.936 394.980,306.397 394.800,306.824 394.800 C 307.251 394.800,307.600 394.620,307.600 394.400 C 307.600 394.180,308.050 394.000,308.600 394.000 C 309.150 394.000,309.600 393.820,309.600 393.600 C 309.600 393.380,309.960 393.200,310.400 393.200 C 310.840 393.200,311.200 393.020,311.200 392.800 C 311.200 392.580,311.562 392.400,312.005 392.400 C 312.448 392.400,313.123 392.242,313.505 392.049 C 313.887 391.855,315.325 391.192,316.700 390.575 C 318.075 389.958,319.200 389.306,319.200 389.126 C 319.200 388.947,319.560 388.800,320.000 388.800 C 320.440 388.800,320.800 388.620,320.800 388.400 C 320.800 388.180,320.993 388.000,321.228 388.000 C 321.463 388.000,322.441 387.460,323.400 386.800 C 324.359 386.140,325.297 385.600,325.484 385.600 C 325.671 385.600,326.083 385.240,326.400 384.800 C 326.717 384.360,327.180 384.000,327.429 384.000 C 327.678 384.000,328.446 383.460,329.137 382.800 C 329.828 382.140,330.588 381.600,330.828 381.600 C 331.067 381.600,331.954 380.880,332.800 380.000 C 333.646 379.120,334.535 378.400,334.776 378.400 C 335.320 378.400,345.600 368.224,345.600 367.686 C 345.600 367.472,346.320 366.555,347.200 365.648 C 348.080 364.741,348.800 363.846,348.800 363.659 C 348.800 363.472,349.340 362.754,350.000 362.063 C 350.660 361.372,351.200 360.575,351.200 360.292 C 351.200 360.009,351.560 359.517,352.000 359.200 C 352.440 358.883,352.800 358.427,352.800 358.187 C 352.800 357.947,353.115 357.402,353.500 356.975 C 353.885 356.549,354.470 355.660,354.799 355.000 C 355.129 354.340,355.512 353.710,355.651 353.600 C 356.187 353.176,358.800 347.795,358.800 347.116 C 358.800 346.722,358.980 346.400,359.200 346.400 C 359.420 346.400,359.600 346.040,359.600 345.600 C 359.600 345.160,359.780 344.800,360.000 344.800 C 360.220 344.800,360.400 344.260,360.400 343.600 C 360.400 342.940,360.580 342.400,360.800 342.400 C 361.020 342.400,361.200 342.040,361.200 341.600 C 361.200 341.160,361.380 340.800,361.600 340.800 C 361.820 340.800,362.000 340.350,362.000 339.800 C 362.000 339.250,362.180 338.800,362.400 338.800 C 362.620 338.800,362.800 338.260,362.800 337.600 C 362.800 336.940,362.980 336.400,363.200 336.400 C 363.420 336.400,363.600 335.860,363.600 335.200 C 363.600 334.540,363.780 334.000,364.000 334.000 C 364.220 334.000,364.400 333.471,364.400 332.824 C 364.400 332.177,364.580 331.536,364.800 331.400 C 365.020 331.264,365.200 330.533,365.200 329.776 C 365.200 329.019,365.380 328.400,365.600 328.400 C 365.820 328.400,366.000 327.601,366.000 326.624 C 366.000 325.647,366.180 324.736,366.400 324.600 C 366.620 324.464,366.800 323.373,366.800 322.176 C 366.800 320.979,366.980 320.000,367.200 320.000 C 367.438 320.000,367.600 318.475,367.600 316.224 C 367.600 314.137,367.779 312.337,368.000 312.200 C 368.263 312.038,368.400 296.270,368.400 266.200 C 368.400 236.130,368.263 220.362,368.000 220.200 C 367.779 220.063,367.600 218.263,367.600 216.176 C 367.600 213.925,367.438 212.400,367.200 212.400 C 366.978 212.400,366.800 211.333,366.800 210.000 C 366.800 208.667,366.622 207.600,366.400 207.600 C 366.180 207.600,366.000 206.880,366.000 206.000 C 366.000 205.120,365.820 204.400,365.600 204.400 C 365.380 204.400,365.200 203.680,365.200 202.800 C 365.200 201.920,365.020 201.200,364.800 201.200 C 364.580 201.200,364.400 200.581,364.400 199.824 C 364.400 199.067,364.220 198.336,364.000 198.200 C 363.780 198.064,363.600 197.513,363.600 196.976 C 363.600 196.439,363.420 196.000,363.200 196.000 C 362.980 196.000,362.800 195.460,362.800 194.800 C 362.800 194.140,362.620 193.600,362.400 193.600 C 362.180 193.600,362.000 193.240,362.000 192.800 C 362.000 192.360,361.820 192.000,361.600 192.000 C 361.380 192.000,361.200 191.460,361.200 190.800 C 361.200 190.140,361.020 189.600,360.800 189.600 C 360.580 189.600,360.400 189.240,360.400 188.800 C 360.400 188.360,360.220 188.000,360.000 188.000 C 359.780 188.000,359.600 187.640,359.600 187.200 C 359.600 186.760,359.440 186.400,359.245 186.400 C 359.049 186.400,358.762 185.725,358.608 184.901 C 358.453 184.076,358.204 183.311,358.055 183.201 C 357.906 183.090,357.181 181.796,356.445 180.325 C 355.708 178.853,354.767 177.286,354.353 176.841 C 353.939 176.397,353.600 175.796,353.600 175.505 C 353.600 175.214,353.240 174.717,352.800 174.400 C 352.360 174.083,352.000 173.543,352.000 173.200 C 352.000 172.857,351.640 172.317,351.200 172.000 C 350.760 171.683,350.400 171.231,350.400 170.996 C 350.400 170.760,349.680 169.772,348.800 168.800 C 347.920 167.828,347.200 166.892,347.200 166.722 C 347.200 165.932,333.146 152.000,332.350 152.000 C 332.153 152.000,331.428 151.460,330.737 150.800 C 330.046 150.140,329.278 149.600,329.029 149.600 C 328.780 149.600,328.317 149.240,328.000 148.800 C 327.683 148.360,327.143 148.000,326.800 148.000 C 326.457 148.000,325.917 147.640,325.600 147.200 C 325.283 146.760,324.871 146.400,324.684 146.400 C 324.497 146.400,323.592 145.885,322.672 145.255 C 321.752 144.625,320.550 143.973,320.000 143.806 C 319.450 143.639,318.816 143.356,318.591 143.177 C 317.566 142.364,313.442 140.400,312.759 140.400 C 312.342 140.400,312.000 140.220,312.000 140.000 C 312.000 139.780,311.640 139.600,311.200 139.600 C 310.760 139.600,310.400 139.420,310.400 139.200 C 310.400 138.980,310.128 138.800,309.795 138.800 C 309.207 138.800,308.782 138.633,306.905 137.662 C 306.413 137.408,305.648 137.200,305.205 137.200 C 304.762 137.200,304.400 137.020,304.400 136.800 C 304.400 136.580,303.860 136.400,303.200 136.400 C 302.540 136.400,302.000 136.220,302.000 136.000 C 302.000 135.780,301.471 135.600,300.824 135.600 C 300.177 135.600,299.536 135.420,299.400 135.200 C 299.264 134.980,298.533 134.800,297.776 134.800 C 297.019 134.800,296.400 134.620,296.400 134.400 C 296.400 134.180,295.500 134.000,294.400 134.000 C 293.300 134.000,292.400 133.820,292.400 133.600 C 292.400 133.380,291.511 133.200,290.424 133.200 C 289.337 133.200,288.336 133.020,288.200 132.800 C 288.064 132.580,286.523 132.400,284.776 132.400 L 281.600 132.400 281.600 105.200 C 281.600 87.333,281.463 78.000,281.200 78.000 C 280.958 78.000,280.800 76.267,280.800 73.600 C 280.800 70.933,280.642 69.200,280.400 69.200 C 280.178 69.200,280.000 68.133,280.000 66.800 C 280.000 65.467,279.822 64.400,279.600 64.400 C 279.380 64.400,279.200 63.601,279.200 62.624 C 279.200 61.647,279.020 60.736,278.800 60.600 C 278.580 60.464,278.400 59.733,278.400 58.976 C 278.400 58.219,278.220 57.600,278.000 57.600 C 277.780 57.600,277.600 56.981,277.600 56.224 C 277.600 55.467,277.420 54.736,277.200 54.600 C 276.980 54.464,276.800 53.823,276.800 53.176 C 276.800 52.529,276.620 52.000,276.400 52.000 C 276.180 52.000,276.000 51.561,276.000 51.024 C 276.000 50.487,275.840 49.949,275.645 49.828 C 275.450 49.707,275.168 48.955,275.018 48.155 C 274.868 47.356,274.589 46.409,274.399 46.051 C 274.208 45.693,273.817 44.815,273.529 44.100 C 273.240 43.385,272.869 42.800,272.702 42.800 C 272.536 42.800,272.400 42.440,272.400 42.000 C 272.400 41.560,272.220 41.200,272.000 41.200 C 271.780 41.200,271.600 40.840,271.600 40.400 C 271.600 39.960,271.420 39.600,271.200 39.600 C 270.980 39.600,270.800 39.240,270.800 38.800 C 270.800 38.360,270.642 38.000,270.449 38.000 C 270.255 38.000,269.873 37.460,269.600 36.800 C 269.327 36.140,268.945 35.600,268.751 35.600 C 268.558 35.600,268.400 35.364,268.400 35.075 C 268.400 34.787,268.040 34.164,267.600 33.692 C 267.160 33.220,266.800 32.673,266.800 32.476 C 266.800 32.279,266.260 31.554,265.600 30.863 C 264.940 30.172,264.400 29.426,264.400 29.204 C 264.400 28.982,264.220 28.800,264.000 28.800 C 263.780 28.800,263.600 28.530,263.600 28.200 C 263.600 27.870,263.422 27.600,263.203 27.600 C 262.716 27.600,260.400 25.220,260.400 24.719 C 260.400 24.220,251.816 16.001,251.294 15.999 C 251.132 15.999,250.370 15.459,249.600 14.800 C 248.830 14.141,248.057 13.601,247.883 13.601 C 247.709 13.600,247.180 13.240,246.708 12.800 C 246.236 12.360,245.613 12.000,245.325 12.000 C 245.036 12.000,244.800 11.838,244.800 11.640 C 244.800 11.441,243.991 10.946,243.001 10.540 C 242.012 10.133,241.202 9.665,241.201 9.500 C 241.201 9.335,240.840 9.200,240.400 9.200 C 239.960 9.200,239.600 9.020,239.600 8.800 C 239.600 8.580,239.240 8.400,238.800 8.400 C 238.360 8.400,238.000 8.220,238.000 8.000 C 238.000 7.780,237.640 7.600,237.200 7.600 C 236.760 7.600,236.400 7.420,236.400 7.200 C 236.400 6.980,236.040 6.800,235.600 6.800 C 235.160 6.800,234.800 6.620,234.800 6.400 C 234.800 6.180,234.440 6.000,234.000 6.000 C 233.560 6.000,233.200 5.820,233.200 5.600 C 233.200 5.380,232.660 5.200,232.000 5.200 C 231.340 5.200,230.800 5.020,230.800 4.800 C 230.800 4.580,230.528 4.400,230.195 4.400 C 229.862 4.400,229.277 4.238,228.895 4.039 C 228.513 3.840,227.390 3.463,226.400 3.200 C 225.410 2.937,224.287 2.560,223.905 2.361 C 223.523 2.162,222.668 2.000,222.005 2.000 C 221.342 2.000,220.800 1.820,220.800 1.600 C 220.800 1.380,220.026 1.200,219.080 1.200 C 218.134 1.200,217.138 0.978,216.866 0.706 C 216.374 0.214,192.563 -0.125,186.500 0.274 M206.800 32.000 C 206.800 32.220,207.689 32.400,208.776 32.400 C 209.863 32.400,210.864 32.580,211.000 32.800 C 211.136 33.020,211.766 33.200,212.400 33.200 C 213.034 33.200,213.664 33.380,213.800 33.600 C 213.936 33.820,214.476 34.000,215.000 34.000 C 215.524 34.000,216.064 34.180,216.200 34.400 C 216.336 34.620,216.887 34.800,217.424 34.800 C 217.961 34.800,218.400 34.980,218.400 35.200 C 218.400 35.420,218.760 35.600,219.200 35.600 C 219.640 35.600,220.000 35.780,220.000 36.000 C 220.000 36.220,220.360 36.400,220.800 36.400 C 221.240 36.400,221.600 36.580,221.600 36.800 C 221.600 37.020,221.960 37.200,222.400 37.200 C 222.840 37.200,223.200 37.380,223.200 37.600 C 223.200 37.820,223.560 38.000,224.000 38.000 C 224.440 38.000,224.800 38.158,224.800 38.351 C 224.800 38.545,225.340 38.927,226.000 39.200 C 226.660 39.473,227.200 39.816,227.200 39.962 C 227.200 40.108,227.785 40.569,228.500 40.985 C 229.215 41.402,230.070 42.034,230.400 42.391 C 230.730 42.747,231.630 43.475,232.400 44.010 C 234.059 45.163,235.598 46.636,235.606 47.082 C 235.610 47.257,236.510 48.381,237.606 49.579 C 238.703 50.778,239.600 51.953,239.600 52.191 C 239.600 52.429,239.960 52.883,240.400 53.200 C 240.840 53.517,241.200 54.097,241.200 54.488 C 241.200 54.880,241.380 55.200,241.600 55.200 C 241.820 55.200,242.000 55.470,242.000 55.800 C 242.000 56.130,242.180 56.400,242.400 56.400 C 242.620 56.400,242.800 56.670,242.800 57.000 C 242.800 57.330,242.957 57.600,243.150 57.600 C 243.343 57.600,243.605 58.127,243.734 58.771 C 243.863 59.414,244.310 60.719,244.727 61.671 C 246.165 64.945,246.400 65.640,246.400 66.619 C 246.400 67.158,246.580 67.600,246.800 67.600 C 247.020 67.600,247.200 68.309,247.200 69.176 C 247.200 70.043,247.380 70.864,247.600 71.000 C 247.820 71.136,248.000 72.666,248.000 74.400 C 248.000 76.134,248.180 77.664,248.400 77.800 C 248.660 77.961,248.800 87.404,248.800 104.824 L 248.800 131.600 200.394 131.600 L 151.989 131.600 152.168 105.700 C 152.352 79.182,152.571 72.087,153.227 71.420 C 153.432 71.211,153.600 70.266,153.600 69.320 C 153.600 68.374,153.780 67.600,154.000 67.600 C 154.220 67.600,154.400 67.060,154.400 66.400 C 154.400 65.740,154.580 65.200,154.800 65.200 C 155.020 65.200,155.200 64.660,155.200 64.000 C 155.200 63.340,155.380 62.800,155.600 62.800 C 155.820 62.800,156.000 62.510,156.000 62.156 C 156.000 61.412,158.846 55.466,159.298 55.267 C 159.464 55.193,159.600 54.877,159.600 54.563 C 159.600 54.249,160.140 53.428,160.800 52.737 C 161.460 52.046,162.000 51.323,162.000 51.130 C 162.000 50.937,162.815 49.964,163.811 48.968 C 164.808 47.971,165.499 46.960,165.349 46.717 C 165.185 46.452,165.260 46.390,165.538 46.562 C 165.800 46.723,166.000 46.614,166.000 46.310 C 166.000 46.014,166.550 45.447,167.223 45.050 C 167.895 44.653,169.020 43.759,169.723 43.064 C 170.425 42.368,172.123 41.079,173.497 40.200 C 174.870 39.320,175.995 38.465,175.997 38.300 C 175.998 38.135,176.360 38.000,176.800 38.000 C 177.240 38.000,177.600 37.820,177.600 37.600 C 177.600 37.380,177.960 37.200,178.400 37.200 C 178.840 37.200,179.200 37.020,179.200 36.800 C 179.200 36.580,179.560 36.400,180.000 36.400 C 180.440 36.400,180.800 36.220,180.800 36.000 C 180.800 35.780,181.160 35.600,181.600 35.600 C 182.040 35.600,182.400 35.420,182.400 35.200 C 182.400 34.980,182.839 34.800,183.376 34.800 C 183.913 34.800,184.464 34.620,184.600 34.400 C 184.736 34.180,185.276 34.000,185.800 34.000 C 186.324 34.000,186.864 33.820,187.000 33.600 C 187.136 33.380,187.766 33.200,188.400 33.200 C 189.034 33.200,189.664 33.020,189.800 32.800 C 189.936 32.580,190.937 32.400,192.024 32.400 C 193.111 32.400,194.000 32.220,194.000 32.000 C 194.000 31.750,196.400 31.600,200.400 31.600 C 204.400 31.600,206.800 31.750,206.800 32.000 M127.455 163.800 C 127.659 164.330,136.469 164.400,203.419 164.400 C 253.477 164.400,279.237 164.536,279.400 164.800 C 279.536 165.020,280.807 165.200,282.224 165.200 C 283.675 165.200,284.800 165.375,284.800 165.600 C 284.800 165.820,285.509 166.000,286.376 166.000 C 287.243 166.000,288.064 166.180,288.200 166.400 C 288.336 166.620,289.067 166.800,289.824 166.800 C 290.581 166.800,291.200 166.980,291.200 167.200 C 291.200 167.420,291.740 167.600,292.400 167.600 C 293.060 167.600,293.600 167.780,293.600 168.000 C 293.600 168.220,293.943 168.400,294.362 168.400 C 295.021 168.400,296.189 168.886,299.295 170.450 C 299.677 170.643,300.262 170.800,300.595 170.800 C 300.928 170.800,301.201 170.935,301.203 171.100 C 301.205 171.265,301.610 171.587,302.103 171.817 C 303.524 172.477,306.580 174.177,306.800 174.430 C 306.910 174.557,307.630 175.007,308.400 175.430 C 309.170 175.854,310.091 176.515,310.447 176.900 C 310.803 177.285,311.214 177.600,311.360 177.600 C 311.794 177.600,321.322 187.274,322.392 188.800 C 322.932 189.570,323.560 190.405,323.787 190.655 C 324.740 191.706,325.434 192.676,325.968 193.706 C 326.280 194.308,326.685 194.800,326.868 194.800 C 327.050 194.800,327.200 195.063,327.200 195.385 C 327.200 195.707,328.028 197.732,329.040 199.885 C 330.052 202.038,331.042 204.205,331.240 204.700 C 332.602 208.105,333.200 210.068,333.200 211.128 C 333.200 211.608,333.380 212.000,333.600 212.000 C 333.820 212.000,334.000 212.900,334.000 214.000 C 334.000 215.100,334.180 216.000,334.400 216.000 C 334.631 216.000,334.800 217.267,334.800 219.000 C 334.800 220.733,334.969 222.000,335.200 222.000 C 335.753 222.000,335.753 310.258,335.200 310.600 C 334.980 310.736,334.800 312.086,334.800 313.600 C 334.800 315.114,334.620 316.464,334.400 316.600 C 334.180 316.736,334.000 317.546,334.000 318.400 C 334.000 319.254,333.820 320.064,333.600 320.200 C 333.380 320.336,333.200 321.067,333.200 321.824 C 333.200 322.581,333.020 323.200,332.800 323.200 C 332.580 323.200,332.400 323.740,332.400 324.400 C 332.400 325.060,332.220 325.600,332.000 325.600 C 331.780 325.600,331.600 326.039,331.600 326.576 C 331.600 327.113,331.420 327.664,331.200 327.800 C 330.980 327.936,330.800 328.487,330.800 329.024 C 330.800 329.561,330.620 330.000,330.400 330.000 C 330.180 330.000,330.000 330.360,330.000 330.800 C 330.000 331.240,329.820 331.600,329.600 331.600 C 329.380 331.600,329.200 331.835,329.200 332.121 C 329.200 332.800,327.145 336.960,326.724 337.133 C 326.546 337.207,326.400 337.612,326.400 338.033 C 326.400 338.455,326.220 338.800,326.000 338.800 C 325.780 338.800,325.600 339.043,325.600 339.341 C 325.600 339.638,325.060 340.446,324.400 341.137 C 323.740 341.828,323.200 342.549,323.200 342.740 C 323.200 343.304,314.348 352.800,313.822 352.800 C 313.567 352.800,312.251 353.861,310.968 355.100 C 310.456 355.595,309.888 356.000,309.706 356.000 C 309.525 356.000,309.117 356.360,308.800 356.800 C 308.483 357.240,307.943 357.600,307.600 357.600 C 307.257 357.600,306.717 357.960,306.400 358.400 C 306.083 358.840,305.503 359.200,305.112 359.200 C 304.720 359.200,304.400 359.366,304.400 359.568 C 304.400 359.771,303.860 360.055,303.200 360.200 C 302.540 360.345,302.000 360.629,302.000 360.832 C 302.000 361.034,301.640 361.200,301.200 361.200 C 300.760 361.200,300.400 361.380,300.400 361.600 C 300.400 361.820,300.128 362.000,299.795 362.000 C 299.462 362.000,298.877 362.157,298.495 362.350 C 295.389 363.914,294.221 364.400,293.562 364.400 C 293.143 364.400,292.800 364.580,292.800 364.800 C 292.800 365.020,292.181 365.200,291.424 365.200 C 290.667 365.200,289.936 365.380,289.800 365.600 C 289.664 365.820,289.034 366.000,288.400 366.000 C 287.766 366.000,287.136 366.180,287.000 366.400 C 286.864 366.620,285.863 366.800,284.776 366.800 C 283.689 366.800,282.800 366.980,282.800 367.200 C 282.800 367.465,256.667 367.600,205.200 367.600 C 133.729 367.600,127.600 367.652,127.600 368.252 C 127.600 369.977,113.319 368.192,105.800 365.529 C 101.828 364.121,92.800 359.688,92.800 359.144 C 92.800 358.955,92.564 358.800,92.275 358.800 C 91.987 358.800,91.402 358.480,90.975 358.089 C 90.549 357.698,89.570 356.936,88.800 356.396 C 85.753 354.260,79.948 348.700,77.780 345.844 C 77.131 344.989,76.375 344.057,76.100 343.773 C 75.825 343.489,75.600 343.079,75.600 342.862 C 75.600 342.645,75.458 342.407,75.286 342.333 C 74.663 342.069,72.826 339.151,70.418 334.600 C 69.159 332.221,66.857 326.568,66.393 324.716 C 65.417 320.817,64.823 318.354,64.339 316.200 C 63.556 312.713,63.545 220.260,64.327 216.400 C 66.025 208.019,69.098 199.428,71.982 195.000 C 72.555 194.120,73.274 192.905,73.580 192.300 C 73.885 191.695,74.285 191.200,74.468 191.200 C 74.650 191.200,74.800 191.009,74.800 190.777 C 74.800 189.997,78.642 185.382,82.426 181.616 C 93.892 170.204,108.301 164.148,126.113 163.256 C 126.773 163.223,127.319 163.444,127.455 163.800 " stroke="none" fill="#0424c4" fill-rule="evenodd"></path><path id="path3" d="M120.700 164.295 C 121.855 164.376,123.745 164.376,124.900 164.295 C 126.055 164.214,125.110 164.148,122.800 164.148 C 120.490 164.148,119.545 164.214,120.700 164.295 M115.400 164.694 C 113.626 164.951,109.915 165.949,109.639 166.244 C 109.508 166.384,109.760 166.402,110.200 166.284 C 111.211 166.011,114.456 165.302,116.800 164.840 C 118.624 164.481,117.604 164.374,115.400 164.694 M107.200 166.818 C 106.762 167.115,106.924 167.152,107.800 166.956 C 109.271 166.627,109.590 166.398,108.567 166.406 C 108.145 166.409,107.530 166.595,107.200 166.818 M103.800 168.029 C 102.920 168.452,102.650 168.686,103.200 168.550 C 104.705 168.175,106.684 167.266,106.000 167.262 C 105.670 167.261,104.680 167.606,103.800 168.029 M92.794 173.618 C 92.247 174.039,91.980 174.380,92.200 174.378 C 92.729 174.373,94.191 173.258,93.965 173.031 C 93.868 172.934,93.341 173.198,92.794 173.618 M88.135 176.965 C 84.671 179.704,80.004 184.256,77.908 186.939 C 77.195 187.852,78.654 186.485,81.151 183.900 C 85.105 179.806,89.005 176.420,91.148 175.221 C 91.503 175.022,91.694 174.761,91.573 174.640 C 91.452 174.519,89.905 175.565,88.135 176.965 M75.584 190.023 C 75.105 190.696,74.779 191.313,74.861 191.394 C 74.943 191.476,75.414 190.926,75.908 190.171 C 77.023 188.471,76.771 188.356,75.584 190.023 M73.422 193.022 C 73.045 193.598,72.816 194.149,72.914 194.247 C 73.012 194.345,73.400 193.954,73.778 193.378 C 74.155 192.802,74.384 192.251,74.286 192.153 C 74.188 192.055,73.800 192.446,73.422 193.022 M66.272 209.270 C 65.250 212.885,64.687 215.865,64.917 216.446 C 65.039 216.752,65.153 216.553,65.172 216.000 C 65.192 215.450,65.643 213.292,66.174 211.204 C 67.205 207.153,67.278 205.711,66.272 209.270 M64.256 219.045 C 64.115 220.072,64.042 241.632,64.094 266.956 L 64.187 313.000 64.394 265.200 C 64.507 238.910,64.580 217.350,64.556 217.289 C 64.532 217.228,64.397 218.018,64.256 219.045 M64.830 316.507 C 64.803 317.494,65.670 321.230,66.846 325.200 C 67.539 327.540,67.612 327.721,67.793 327.540 C 67.889 327.444,67.602 326.203,67.155 324.783 C 66.709 323.362,66.009 320.670,65.601 318.800 C 65.193 316.930,64.846 315.898,64.830 316.507 M70.401 333.720 C 70.399 334.273,71.650 336.484,71.851 336.282 C 71.957 336.177,71.674 335.485,71.223 334.745 C 70.772 334.005,70.402 333.544,70.401 333.720 M72.586 337.900 C 72.935 338.615,73.306 339.200,73.410 339.200 C 73.808 339.200,73.552 338.563,72.767 337.600 L 71.952 336.600 72.586 337.900 M74.237 340.600 C 74.597 341.150,74.957 341.600,75.037 341.600 C 75.117 341.600,74.978 341.150,74.727 340.600 C 74.477 340.050,74.116 339.600,73.927 339.600 C 73.737 339.600,73.876 340.050,74.237 340.600 M76.227 343.400 C 77.600 345.200,77.868 345.203,76.704 343.405 C 76.207 342.638,75.656 342.008,75.480 342.005 C 75.303 342.002,75.640 342.630,76.227 343.400 M79.469 347.469 C 83.215 351.870,91.840 358.746,96.400 360.966 L 97.800 361.648 96.800 360.833 C 96.250 360.385,95.658 360.014,95.485 360.009 C 93.878 359.964,83.124 351.231,80.000 347.435 C 79.010 346.232,78.051 345.237,77.869 345.224 C 77.687 345.211,78.407 346.221,79.469 347.469 M100.800 363.200 C 101.570 363.622,102.380 363.966,102.600 363.966 C 102.820 363.966,102.370 363.622,101.600 363.200 C 100.830 362.778,100.020 362.434,99.800 362.434 C 99.580 362.434,100.030 362.778,100.800 363.200 M108.000 366.000 C 108.330 366.213,108.870 366.388,109.200 366.388 C 109.733 366.388,109.733 366.345,109.200 366.000 C 108.870 365.787,108.330 365.612,108.000 365.612 C 107.467 365.612,107.467 365.655,108.000 366.000 M111.000 366.800 C 111.440 366.989,112.160 367.138,112.600 367.132 C 113.243 367.123,113.204 367.057,112.400 366.800 C 111.032 366.362,109.981 366.362,111.000 366.800 M114.600 367.600 C 115.040 367.789,115.940 367.935,116.600 367.925 L 117.800 367.905 116.600 367.600 C 115.940 367.432,115.040 367.286,114.600 367.275 L 113.800 367.256 114.600 367.600 M120.200 368.407 C 121.763 368.746,127.097 368.945,126.767 368.653 C 126.675 368.571,124.800 368.405,122.600 368.283 C 119.878 368.131,119.111 368.171,120.200 368.407 " stroke="none" fill="#728edc" fill-rule="evenodd"></path><path id="path4" d="M123.000 163.591 L 121.000 163.874 123.667 163.937 C 125.134 163.972,126.644 164.119,127.022 164.264 C 127.504 164.449,127.654 164.359,127.524 163.964 C 127.309 163.311,125.834 163.190,123.000 163.591 M115.600 164.420 C 114.926 164.649,115.251 164.684,116.600 164.528 C 117.700 164.401,118.675 164.231,118.767 164.149 C 119.082 163.868,116.599 164.080,115.600 164.420 M111.800 165.200 C 111.296 165.417,111.222 165.544,111.600 165.544 C 111.930 165.544,112.560 165.389,113.000 165.200 C 113.504 164.983,113.578 164.856,113.200 164.856 C 112.870 164.856,112.240 165.011,111.800 165.200 M108.800 166.000 C 108.267 166.345,108.267 166.388,108.800 166.388 C 109.130 166.388,109.670 166.213,110.000 166.000 C 110.533 165.655,110.533 165.612,110.000 165.612 C 109.670 165.612,109.130 165.787,108.800 166.000 M97.442 170.612 C 93.852 172.459,89.452 175.269,88.998 176.004 C 88.859 176.228,89.883 175.617,91.273 174.647 C 92.663 173.676,95.398 172.061,97.351 171.057 C 100.669 169.351,101.597 168.800,101.148 168.800 C 101.047 168.800,99.379 169.615,97.442 170.612 M85.054 179.033 C 84.423 179.587,83.987 180.120,84.083 180.216 C 84.179 180.313,84.774 179.854,85.404 179.196 C 86.796 177.743,86.616 177.659,85.054 179.033 M81.802 181.998 C 81.403 182.439,81.207 182.800,81.367 182.800 C 81.788 182.800,82.928 181.595,82.712 181.379 C 82.611 181.278,82.202 181.556,81.802 181.998 M78.975 185.300 L 77.800 186.600 79.100 185.425 C 80.312 184.330,80.584 184.000,80.275 184.000 C 80.206 184.000,79.621 184.585,78.975 185.300 M76.074 188.666 C 75.345 189.665,74.816 190.549,74.897 190.630 C 74.979 190.712,75.714 189.883,76.530 188.789 C 77.347 187.695,77.877 186.811,77.708 186.825 C 77.538 186.838,76.804 187.667,76.074 188.666 M73.669 192.039 C 72.928 193.224,73.257 193.313,74.119 192.161 C 74.514 191.632,74.692 191.200,74.515 191.200 C 74.338 191.200,73.957 191.578,73.669 192.039 M71.779 195.309 C 70.727 197.045,70.313 198.101,70.805 197.797 C 71.022 197.663,71.200 197.366,71.200 197.138 C 71.200 196.910,71.580 196.190,72.044 195.539 C 72.508 194.887,72.813 194.280,72.723 194.189 C 72.632 194.099,72.207 194.603,71.779 195.309 M67.850 203.591 C 66.947 205.847,67.087 206.183,68.037 204.042 C 68.466 203.075,68.745 202.212,68.658 202.125 C 68.571 202.038,68.208 202.698,67.850 203.591 M65.000 212.800 C 64.848 213.491,64.807 214.141,64.909 214.242 C 65.011 214.344,65.209 213.853,65.350 213.150 C 65.683 211.483,65.360 211.160,65.000 212.800 M64.269 216.756 C 64.121 217.495,64.020 218.482,64.044 218.950 C 64.068 219.418,64.247 218.990,64.442 218.000 C 64.637 217.010,64.738 216.023,64.667 215.806 C 64.596 215.590,64.417 216.017,64.269 216.756 M63.793 266.200 C 63.793 290.180,63.841 300.049,63.900 288.131 C 63.959 276.213,63.959 256.593,63.900 244.531 C 63.841 232.469,63.793 242.220,63.793 266.200 M64.028 314.033 C 64.044 314.785,64.220 315.760,64.420 316.200 C 64.665 316.739,64.705 316.346,64.541 315.000 C 64.251 312.619,63.989 312.124,64.028 314.033 M64.856 318.800 C 64.856 319.130,65.011 319.760,65.200 320.200 C 65.417 320.704,65.544 320.778,65.544 320.400 C 65.544 320.070,65.389 319.440,65.200 319.000 C 64.983 318.496,64.856 318.422,64.856 318.800 M66.456 324.800 C 66.456 325.130,66.611 325.760,66.800 326.200 C 67.017 326.704,67.144 326.778,67.144 326.400 C 67.144 326.070,66.989 325.440,66.800 325.000 C 66.583 324.496,66.456 324.422,66.456 324.800 M68.909 331.500 C 68.995 331.665,69.374 332.475,69.752 333.300 C 70.129 334.125,70.530 334.800,70.642 334.800 C 70.755 334.800,70.777 334.665,70.691 334.500 C 70.605 334.335,70.226 333.525,69.848 332.700 C 69.471 331.875,69.070 331.200,68.958 331.200 C 68.845 331.200,68.823 331.335,68.909 331.500 M70.815 335.400 C 70.817 335.620,71.186 336.250,71.636 336.800 C 72.179 337.464,72.315 337.531,72.040 337.000 C 71.366 335.695,70.812 334.972,70.815 335.400 M72.400 338.121 C 72.400 338.292,73.030 339.367,73.800 340.510 C 74.570 341.654,75.200 342.450,75.200 342.279 C 75.200 342.108,74.570 341.033,73.800 339.890 C 73.030 338.746,72.400 337.950,72.400 338.121 M79.110 347.400 C 80.354 349.023,83.755 352.368,85.624 353.810 C 86.188 354.245,85.648 353.671,84.424 352.535 C 83.201 351.400,81.229 349.420,80.042 348.135 C 78.795 346.786,78.402 346.476,79.110 347.400 M90.400 357.485 C 90.400 357.834,91.999 358.938,92.200 358.728 C 92.267 358.657,91.889 358.277,91.361 357.881 C 90.832 357.486,90.400 357.308,90.400 357.485 M92.800 359.095 C 92.800 359.484,94.414 360.519,94.651 360.282 C 94.747 360.186,94.369 359.810,93.812 359.445 C 93.256 359.080,92.800 358.922,92.800 359.095 M99.600 363.000 C 100.150 363.314,100.780 363.572,101.000 363.572 C 101.220 363.572,100.950 363.314,100.400 363.000 C 99.850 362.686,99.220 362.428,99.000 362.428 C 98.780 362.428,99.050 362.686,99.600 363.000 M101.600 363.831 C 101.600 364.101,103.678 364.856,103.876 364.657 C 103.967 364.567,103.492 364.301,102.820 364.067 C 102.149 363.833,101.600 363.727,101.600 363.831 M105.426 365.365 C 107.444 366.244,108.726 366.459,107.000 365.629 C 106.120 365.206,105.130 364.853,104.800 364.845 C 104.470 364.838,104.752 365.072,105.426 365.365 M109.600 366.800 C 110.968 367.238,112.019 367.238,111.000 366.800 C 110.560 366.611,109.840 366.462,109.400 366.468 C 108.757 366.477,108.796 366.543,109.600 366.800 M113.200 367.600 C 114.568 368.038,115.619 368.038,114.600 367.600 C 114.160 367.411,113.440 367.262,113.000 367.268 C 112.357 367.277,112.396 367.343,113.200 367.600 M117.800 368.423 C 118.680 368.605,119.850 368.744,120.400 368.731 C 121.041 368.716,120.826 368.589,119.800 368.377 C 118.920 368.195,117.750 368.056,117.200 368.069 C 116.559 368.084,116.774 368.211,117.800 368.423 " stroke="none" fill="#5671d6" fill-rule="evenodd"></path></g></svg>