<?xml version="1.0" standalone="no"?>
<!DOCTYPE svg PUBLIC "-//W3C//DTD SVG 20010904//EN"
 "http://www.w3.org/TR/2001/REC-SVG-20010904/DTD/svg10.dtd">
<svg version="1.0" xmlns="http://www.w3.org/2000/svg"
 width="512.000000pt" height="512.000000pt" viewBox="0 0 512.000000 512.000000"
 preserveAspectRatio="xMidYMid meet">

<g transform="translate(0.000000,512.000000) scale(0.100000,-0.100000)"
fill="#000000" stroke="none">
<path d="M2492 5109 c-45 -13 -108 -80 -121 -126 -7 -26 -11 -392 -11 -1130
l0 -1093 -1113 -2 -1113 -3 -41 -27 c-63 -41 -88 -90 -88 -169 0 -54 5 -72 27
-106 15 -22 44 -51 65 -64 l38 -24 1112 -3 1113 -2 2 -1113 3 -1112 24 -38
c13 -21 42 -50 64 -65 34 -23 52 -27 107 -27 55 0 73 4 107 27 22 15 51 44 64
65 l24 38 3 1112 2 1113 1113 2 1112 3 38 24 c21 13 50 42 65 64 23 34 27 52
27 107 0 55 -4 73 -27 107 -15 22 -44 51 -65 64 l-38 24 -1112 3 -1113 2 -2
1113 -3 1112 -24 38 c-47 76 -151 113 -239 86z"/>
</g>
</svg>
