<?xml version="1.0" standalone="no"?>
<!DOCTYPE svg PUBLIC "-//W3C//DTD SVG 20010904//EN"
 "http://www.w3.org/TR/2001/REC-SVG-20010904/DTD/svg10.dtd">
<svg version="1.0" xmlns="http://www.w3.org/2000/svg"
 width="512.000000pt" height="512.000000pt" viewBox="0 0 512.000000 512.000000"
 preserveAspectRatio="xMidYMid meet">

<g transform="translate(0.000000,512.000000) scale(0.100000,-0.100000)"
fill="#000000" stroke="none">
<path d="M2330 5110 c-493 -48 -951 -231 -1350 -538 -109 -84 -348 -323 -432
-432 -213 -276 -366 -580 -453 -897 -217 -791 -54 -1606 453 -2263 84 -109
323 -348 432 -432 276 -213 580 -366 897 -453 791 -217 1606 -54 2263 453 109
84 348 323 432 432 312 405 494 865 538 1365 5 60 10 134 10 163 l0 52 -119 0
-118 0 -7 -38 c-3 -20 -6 -66 -6 -102 -1 -140 -49 -393 -110 -580 -280 -856
-1023 -1464 -1930 -1580 -122 -16 -418 -16 -540 0 -817 104 -1505 608 -1838
1344 -140 309 -205 612 -205 956 0 260 36 486 113 720 282 857 1022 1464 1930
1580 136 18 431 16 575 -4 463 -64 883 -256 1231 -563 37 -32 190 -187 341
-345 l274 -288 -405 0 -406 0 0 -125 0 -125 610 0 610 0 0 610 0 610 -120 0
-120 0 0 -397 0 -398 -52 55 c-217 231 -551 568 -619 627 -363 307 -798 503
-1289 578 -122 19 -465 28 -590 15z"/>
</g>
</svg>
