<?xml version="1.0" standalone="no"?>
<!DOCTYPE svg PUBLIC "-//W3C//DTD SVG 20010904//EN"
 "http://www.w3.org/TR/2001/REC-SVG-20010904/DTD/svg10.dtd">
<svg version="1.0" xmlns="http://www.w3.org/2000/svg"
 width="512.000000pt" height="512.000000pt" viewBox="0 0 512.000000 512.000000"
 preserveAspectRatio="xMidYMid meet">

<g transform="translate(0.000000,512.000000) scale(0.100000,-0.100000)"
fill="#000000" stroke="none">
<path d="M1669 4900 c-275 -26 -557 -130 -779 -288 -122 -86 -296 -260 -382
-382 -256 -362 -350 -817 -258 -1257 114 -544 526 -1006 1057 -1183 188 -62
267 -74 503 -74 237 0 324 12 512 75 171 57 371 167 497 273 l44 37 118 -117
119 -118 -85 -86 c-85 -88 -102 -119 -90 -168 7 -30 1113 -1145 1198 -1209
170 -126 409 -104 556 52 145 153 160 377 38 542 -64 85 -1179 1191 -1209
1198 -49 12 -80 -5 -168 -90 l-86 -85 -118 119 -117 118 44 54 c154 191 263
423 319 682 19 88 22 131 22 317 0 184 -3 229 -22 313 -129 580 -529 1027
-1082 1207 -180 59 -443 88 -631 70z m426 -235 c550 -123 956 -532 1077 -1083
32 -145 32 -407 0 -551 -64 -285 -182 -502 -381 -702 -200 -199 -417 -317
-702 -381 -143 -32 -406 -32 -549 -1 -288 64 -518 191 -719 398 -184 189 -301
404 -362 665 -26 110 -36 364 -20 481 85 601 547 1079 1144 1184 107 19 412
13 512 -10z m1922 -3257 c292 -293 538 -546 546 -563 51 -106 10 -232 -94
-285 -51 -27 -139 -27 -193 0 -27 13 -222 201 -571 550 l-530 530 150 150 c82
82 152 150 155 150 3 0 244 -240 537 -532z"/>
<path d="M1685 4474 c-267 -41 -455 -125 -649 -289 -80 -68 -98 -111 -72 -167
16 -33 35 -48 79 -62 27 -9 67 11 127 63 186 162 400 243 640 244 249 1 454
-77 648 -246 69 -60 101 -72 148 -52 42 17 64 51 64 97 0 48 -49 104 -160 187
-135 100 -290 170 -462 207 -72 15 -305 27 -363 18z"/>
</g>
</svg>
